<svg width="1267" height="652" viewBox="0 0 1267 652" fill="none" xmlns="http://www.w3.org/2000/svg">
<g clip-path="url(#clip0_1_5)">
<rect width="1265.22" height="651.369" transform="translate(0.892212 0.302734)" fill="black"/>
<path opacity="0.3" d="M43.8522 683.343L43.4661 683.729L43.479 683.742L43.4926 683.754L43.8522 683.343ZM41.8922 618.103H42.4383V617.964L42.3723 617.843L41.8922 618.103ZM-23.0678 498.263L-23.5858 498.435L-23.5707 498.481L-23.5478 498.523L-23.0678 498.263ZM-23.6278 496.863L-24.1458 497.035L-24.1335 497.072L-24.1162 497.107L-23.6278 496.863ZM-22.2278 491.263L-21.8417 491.649L-21.8417 491.649L-22.2278 491.263ZM23.6922 491.543L23.3061 491.929L23.3301 491.953L23.357 491.974L23.6922 491.543ZM26.7722 495.183L26.2542 495.355L26.2704 495.404L26.2954 495.449L26.7722 495.183ZM67.0922 567.423L66.6154 567.689L67.0922 568.543L67.569 567.689L67.0922 567.423ZM107.412 495.183L107.889 495.449L107.895 495.438L107.901 495.427L107.412 495.183ZM110.492 491.543L110.852 491.954L110.855 491.951L110.492 491.543ZM156.412 491.263L155.998 491.618L156.011 491.634L156.026 491.649L156.412 491.263ZM157.812 496.863L157.294 496.69L157.266 496.774V496.863H157.812ZM157.532 498.263L158.012 498.524L158.035 498.481L158.05 498.435L157.532 498.263ZM92.2922 618.103L91.8126 617.842L91.7462 617.964V618.103H92.2922ZM48.8922 684.757C47.1666 684.757 45.6124 684.157 44.2118 682.932L43.4926 683.754C45.0787 685.141 46.8845 685.849 48.8922 685.849V684.757ZM44.2383 682.957C43.0459 681.764 42.4383 680.229 42.4383 678.303H41.3462C41.3462 680.483 42.0452 682.308 43.4661 683.729L44.2383 682.957ZM42.4383 678.303V618.103H41.3462V678.303H42.4383ZM42.3723 617.843L-22.5877 498.003L-23.5478 498.523L41.4122 618.363L42.3723 617.843ZM-22.5498 498.09C-22.7415 497.515 -22.9375 497.022 -23.1394 496.619L-24.1162 497.107C-23.9447 497.45 -23.7674 497.891 -23.5858 498.435L-22.5498 498.09ZM-23.1098 496.69C-23.2789 496.183 -23.3617 495.681 -23.3617 495.183H-24.4538C-24.4538 495.805 -24.35 496.423 -24.1458 497.035L-23.1098 496.69ZM-23.3617 495.183C-23.3617 493.844 -22.8662 492.673 -21.8417 491.649L-22.6139 490.877C-23.8294 492.092 -24.4538 493.535 -24.4538 495.183H-23.3617ZM-21.8417 491.649C-20.6262 490.433 -19.2678 489.849 -17.7478 489.849V488.757C-19.5878 488.757 -21.2161 489.479 -22.6139 490.877L-21.8417 491.649ZM-17.7478 489.849H17.2522V488.757H-17.7478V489.849ZM17.2522 489.849C19.9562 489.849 21.9452 490.568 23.3061 491.929L24.0783 491.157C22.4526 489.531 20.1482 488.757 17.2522 488.757V489.849ZM23.357 491.974C25.0112 493.26 25.9328 494.391 26.2542 495.355L27.2902 495.01C26.865 493.734 25.7333 492.438 24.0274 491.112L23.357 491.974ZM26.2954 495.449L66.6154 567.689L67.569 567.157L27.249 494.917L26.2954 495.449ZM67.569 567.689L107.889 495.449L106.935 494.917L66.6154 567.157L67.569 567.689ZM107.901 495.427C108.416 494.396 109.384 493.238 110.852 491.954L110.133 491.132C108.614 492.461 107.529 493.729 106.924 494.939L107.901 495.427ZM110.855 491.951C112.412 490.567 114.512 489.849 117.212 489.849V488.757C114.313 488.757 111.932 489.532 110.129 491.135L110.855 491.951ZM117.212 489.849H152.212V488.757H117.212V489.849ZM152.212 489.849C153.728 489.849 154.978 490.429 155.998 491.618L156.827 490.907C155.606 489.483 154.056 488.757 152.212 488.757V489.849ZM156.026 491.649C157.051 492.673 157.546 493.844 157.546 495.183H158.638C158.638 493.535 158.014 492.092 156.798 490.877L156.026 491.649ZM157.546 495.183C157.546 495.681 157.463 496.183 157.294 496.69L158.33 497.035C158.534 496.423 158.638 495.805 158.638 495.183H157.546ZM157.266 496.863C157.266 497.153 157.192 497.557 157.014 498.09L158.05 498.435C158.246 497.848 158.358 497.319 158.358 496.863H157.266ZM157.053 498.002L91.8126 617.842L92.7718 618.364L158.012 498.524L157.053 498.002ZM91.7462 618.103V678.303H92.8383V618.103H91.7462ZM91.7462 678.303C91.7462 680.229 91.1385 681.764 89.9461 682.957L90.7183 683.729C92.1392 682.308 92.8383 680.483 92.8383 678.303H91.7462ZM89.9461 682.957C88.7537 684.149 87.2184 684.757 85.2922 684.757V685.849C87.4727 685.849 89.2974 685.15 90.7183 683.729L89.9461 682.957ZM85.2922 684.757H48.8922V685.849H85.2922V684.757ZM183.782 680.543L183.548 681.036L183.552 681.038L183.782 680.543ZM159.142 658.983L158.671 659.26L158.678 659.27L159.142 658.983ZM149.622 625.103L149.077 625.13L149.077 625.134L149.622 625.103ZM149.622 599.903L149.077 599.872L149.077 599.874L149.622 599.903ZM159.702 566.023L159.242 565.728L159.242 565.728L159.702 566.023ZM184.622 544.463L184.392 543.968L184.388 543.969L184.622 544.463ZM262.462 544.463L262.228 544.956L262.232 544.958L262.462 544.463ZM287.662 566.023L288.122 565.728L288.122 565.728L287.662 566.023ZM297.742 599.903L298.288 599.874L298.287 599.872L297.742 599.903ZM297.742 625.103L298.287 625.134L298.288 625.13L297.742 625.103ZM287.942 658.983L287.476 658.699L287.474 658.702L287.942 658.983ZM263.302 680.543L263.072 680.048L263.068 680.049L263.302 680.543ZM241.742 646.383L241.311 646.047L241.303 646.058L241.742 646.383ZM248.462 623.703L247.917 623.666L247.917 623.672L248.462 623.703ZM248.462 601.303L247.917 601.334L247.917 601.339L248.462 601.303ZM241.742 578.903L241.298 579.22L241.304 579.229L241.311 579.238L241.742 578.903ZM205.342 578.903L205.773 579.238L205.779 579.23L205.342 578.903ZM198.902 601.303L199.447 601.339L199.448 601.331L199.448 601.323L198.902 601.303ZM198.902 623.703L199.448 623.683L199.448 623.674L199.447 623.666L198.902 623.703ZM205.342 646.383L205.773 646.047L205.773 646.047L205.342 646.383ZM223.542 687.557C207.918 687.557 194.748 685.045 184.013 680.048L183.552 681.038C194.469 686.12 207.806 688.649 223.542 688.649V687.557ZM184.016 680.049C173.464 675.051 165.334 667.933 159.606 658.695L158.678 659.27C164.524 668.7 172.821 675.955 183.548 681.036L184.016 680.049ZM159.613 658.706C154.064 649.273 150.91 638.068 150.167 625.072L149.077 625.134C149.828 638.271 153.02 649.652 158.672 659.26L159.613 658.706ZM150.168 625.075C149.981 621.353 149.888 617.162 149.888 612.503H148.796C148.796 617.176 148.89 621.386 149.077 625.13L150.168 625.075ZM149.888 612.503C149.888 607.656 149.981 603.466 150.167 599.931L149.077 599.874C148.89 603.433 148.796 607.643 148.796 612.503H149.888ZM150.167 599.933C150.91 586.755 154.249 575.557 160.162 566.317L159.242 565.728C153.209 575.155 149.828 586.543 149.077 599.872L150.167 599.933ZM160.162 566.317C166.077 557.075 174.302 549.955 184.856 544.956L184.388 543.969C173.662 549.05 165.274 556.303 159.242 565.728L160.162 566.317ZM184.853 544.958C195.591 539.959 208.481 537.449 223.542 537.449V536.357C208.363 536.357 195.307 538.886 184.392 543.968L184.853 544.958ZM223.542 537.449C238.791 537.449 251.68 539.96 262.228 544.956L262.696 543.969C251.964 538.886 238.906 536.357 223.542 536.357V537.449ZM262.232 544.958C272.972 549.958 281.289 557.078 287.202 566.317L288.122 565.728C282.089 556.301 273.606 549.048 262.693 543.968L262.232 544.958ZM287.202 566.317C293.116 575.557 296.455 586.755 297.197 599.933L298.287 599.872C297.536 586.543 294.155 575.155 288.122 565.728L287.202 566.317ZM297.197 599.931C297.383 603.466 297.476 607.656 297.476 612.503H298.568C298.568 607.643 298.475 603.433 298.288 599.874L297.197 599.931ZM297.476 612.503C297.476 617.162 297.383 621.353 297.197 625.075L298.288 625.13C298.475 621.386 298.568 617.176 298.568 612.503H297.476ZM297.197 625.072C296.455 638.065 293.208 649.268 287.476 658.699L288.409 659.266C294.249 649.658 297.536 638.274 298.287 625.134L297.197 625.072ZM287.474 658.702C281.936 667.933 273.81 675.049 263.072 680.048L263.533 681.038C274.448 675.956 282.749 668.7 288.41 659.264L287.474 658.702ZM263.068 680.049C252.522 685.045 239.355 687.557 223.542 687.557V688.649C239.463 688.649 252.802 686.121 263.536 681.036L263.068 680.049ZM223.542 654.489C232.052 654.489 238.312 651.931 242.181 646.708L241.303 646.058C237.706 650.914 231.833 653.397 223.542 653.397V654.489ZM242.173 646.718C246.191 641.553 248.445 633.864 249.007 623.733L247.917 623.672C247.36 633.701 245.134 641.133 241.311 646.047L242.173 646.718ZM249.007 623.739C249.195 620.922 249.288 617.175 249.288 612.503H248.196C248.196 617.164 248.103 620.884 247.917 623.666L249.007 623.739ZM249.288 612.503C249.288 607.831 249.195 604.084 249.007 601.266L247.917 601.339C248.103 604.122 248.196 607.841 248.196 612.503H249.288ZM249.007 601.272C248.444 591.325 246.189 583.731 242.173 578.567L241.311 579.238C245.135 584.154 247.36 591.494 247.917 601.334L249.007 601.272ZM242.187 578.585C238.32 573.173 232.059 570.517 223.542 570.517V571.609C231.826 571.609 237.697 574.18 241.298 579.22L242.187 578.585ZM223.542 570.517C215.206 570.517 208.955 573.176 204.905 578.575L205.779 579.23C209.57 574.176 215.452 571.609 223.542 571.609V570.517ZM204.911 578.567C200.892 583.735 198.732 591.333 198.357 601.282L199.448 601.323C199.819 591.486 201.953 584.15 205.773 579.238L204.911 578.567ZM198.357 601.266C198.17 604.084 198.076 607.831 198.076 612.503H199.168C199.168 607.841 199.262 604.122 199.447 601.339L198.357 601.266ZM198.076 612.503C198.076 617.175 198.17 620.922 198.357 623.739L199.447 623.666C199.262 620.884 199.168 617.164 199.168 612.503H198.076ZM198.357 623.723C198.732 633.856 200.891 641.549 204.911 646.718L205.773 646.047C201.954 641.137 199.819 633.71 199.448 623.683L198.357 623.723ZM204.911 646.718C208.963 651.928 215.213 654.489 223.542 654.489V653.397C215.445 653.397 209.561 650.918 205.773 646.047L204.911 646.718ZM350.481 680.823L350.203 681.293L350.207 681.296L350.481 680.823ZM331.161 659.543L330.67 659.783L330.672 659.787L331.161 659.543ZM326.121 541.663L326.507 542.049L326.507 542.049L326.121 541.663ZM371.201 541.663L370.815 542.049L370.815 542.049L371.201 541.663ZM416.001 643.583L415.607 643.204L415.607 643.205L416.001 643.583ZM424.961 541.663L425.347 542.049L425.347 542.049L424.961 541.663ZM470.041 683.343L470.427 683.729L470.427 683.729L470.041 683.343ZM427.481 683.343L427.095 683.729L427.107 683.742L427.121 683.754L427.481 683.343ZM425.521 667.663H426.067V665.974L425.078 667.343L425.521 667.663ZM406.481 683.063L406.7 683.563L406.706 683.56L406.481 683.063ZM379.041 687.557C368.487 687.557 359.063 685.151 350.754 680.35L350.207 681.296C358.698 686.201 368.314 688.649 379.041 688.649V687.557ZM350.758 680.353C342.644 675.558 336.273 668.547 331.649 659.299L330.672 659.787C335.381 669.205 341.891 676.381 350.203 681.293L350.758 680.353ZM331.651 659.302C327.03 649.875 324.707 638.389 324.707 624.823H323.615C323.615 638.51 325.958 650.17 330.67 659.783L331.651 659.302ZM324.707 624.823V546.703H323.615V624.823H324.707ZM324.707 546.703C324.707 544.777 325.314 543.241 326.507 542.049L325.735 541.277C324.314 542.698 323.615 544.522 323.615 546.703H324.707ZM326.507 542.049C327.699 540.856 329.235 540.249 331.161 540.249V539.157C328.98 539.157 327.155 539.856 325.735 541.277L326.507 542.049ZM331.161 540.249H366.161V539.157H331.161V540.249ZM366.161 540.249C368.087 540.249 369.622 540.856 370.815 542.049L371.587 541.277C370.166 539.856 368.341 539.157 366.161 539.157V540.249ZM370.815 542.049C372.007 543.241 372.615 544.777 372.615 546.703H373.707C373.707 544.522 373.008 542.698 371.587 541.277L370.815 542.049ZM372.615 546.703V623.143H373.707V546.703H372.615ZM372.615 623.143C372.615 632.36 374.683 639.375 378.914 644.088C383.156 648.811 389.487 651.129 397.801 651.129V650.037C389.688 650.037 383.698 647.781 379.727 643.358C375.745 638.924 373.707 632.219 373.707 623.143H372.615ZM397.801 651.129C405.573 651.129 411.793 648.754 416.395 643.961L415.607 643.205C411.248 647.744 405.335 650.037 397.801 650.037V651.129ZM416.394 643.961C421.186 638.978 423.547 632.013 423.547 623.143H422.455C422.455 631.819 420.149 638.481 415.607 643.204L416.394 643.961ZM423.547 623.143V546.703H422.455V623.143H423.547ZM423.547 546.703C423.547 544.777 424.154 543.241 425.347 542.049L424.575 541.277C423.154 542.698 422.455 544.522 422.455 546.703H423.547ZM425.347 542.049C426.539 540.856 428.075 540.249 430.001 540.249V539.157C427.82 539.157 425.995 539.856 424.575 541.277L425.347 542.049ZM430.001 540.249H465.001V539.157H430.001V540.249ZM465.001 540.249C466.927 540.249 468.462 540.856 469.655 542.049L470.427 541.277C469.006 539.856 467.181 539.157 465.001 539.157V540.249ZM469.655 542.049C470.847 543.241 471.455 544.777 471.455 546.703H472.547C472.547 544.522 471.848 542.698 470.427 541.277L469.655 542.049ZM471.455 546.703V678.303H472.547V546.703H471.455ZM471.455 678.303C471.455 680.229 470.847 681.764 469.655 682.957L470.427 683.729C471.848 682.308 472.547 680.483 472.547 678.303H471.455ZM469.655 682.957C468.462 684.149 466.927 684.757 465.001 684.757V685.849C467.181 685.849 469.006 685.15 470.427 683.729L469.655 682.957ZM465.001 684.757H432.521V685.849H465.001V684.757ZM432.521 684.757C430.795 684.757 429.241 684.157 427.84 682.932L427.121 683.754C428.707 685.141 430.513 685.849 432.521 685.849V684.757ZM427.867 682.957C426.674 681.764 426.067 680.229 426.067 678.303H424.975C424.975 680.483 425.674 682.308 427.095 683.729L427.867 682.957ZM426.067 678.303V667.663H424.975V678.303H426.067ZM425.078 667.343C420.283 673.983 414.012 679.056 406.256 682.565L406.706 683.56C414.629 679.976 421.052 674.783 425.963 667.982L425.078 667.343ZM406.261 682.563C398.693 685.885 389.625 687.557 379.041 687.557V688.649C389.736 688.649 398.962 686.96 406.7 683.563L406.261 682.563ZM506.896 683.343L506.51 683.729L506.51 683.729L506.896 683.343ZM506.896 541.943L507.282 542.329L507.295 542.316L507.307 542.302L506.896 541.943ZM549.176 541.943L548.765 542.302L548.777 542.316L548.79 542.329L549.176 541.943ZM551.136 557.903H550.59V559.361L551.547 558.261L551.136 557.903ZM569.056 544.463L568.833 543.964L568.828 543.967L569.056 544.463ZM609.936 541.663L609.55 542.049L609.562 542.062L609.576 542.074L609.936 541.663ZM560.096 588.983L560.482 589.369L560.482 589.369L560.096 588.983ZM551.696 683.343L551.336 682.932L551.322 682.944L551.31 682.957L551.696 683.343ZM511.936 684.757C510.01 684.757 508.474 684.149 507.282 682.957L506.51 683.729C507.93 685.15 509.755 685.849 511.936 685.849V684.757ZM507.282 682.957C506.089 681.764 505.482 680.229 505.482 678.303H504.39C504.39 680.483 505.089 682.308 506.51 683.729L507.282 682.957ZM505.482 678.303V546.703H504.39V678.303H505.482ZM505.482 546.703C505.482 544.979 506.079 543.532 507.282 542.329L506.51 541.557C505.099 542.967 504.39 544.693 504.39 546.703H505.482ZM507.307 542.302C508.506 540.932 510.034 540.249 511.936 540.249V539.157C509.731 539.157 507.899 539.967 506.485 541.583L507.307 542.302ZM511.936 540.249H544.136V539.157H511.936V540.249ZM544.136 540.249C546.038 540.249 547.566 540.932 548.765 542.302L549.587 541.583C548.172 539.967 546.34 539.157 544.136 539.157V540.249ZM548.79 542.329C549.993 543.532 550.59 544.979 550.59 546.703H551.682C551.682 544.693 550.972 542.967 549.562 541.557L548.79 542.329ZM550.59 546.703V557.903H551.682V546.703H550.59ZM551.547 558.261C556.537 552.532 562.448 548.1 569.284 544.959L568.828 543.967C561.85 547.173 555.814 551.7 550.724 557.544L551.547 558.261ZM569.279 544.961C576.293 541.823 584.149 540.249 592.856 540.249V539.157C584.015 539.157 576.005 540.756 568.833 543.964L569.279 544.961ZM592.856 540.249H605.176V539.157H592.856V540.249ZM605.176 540.249C606.899 540.249 608.346 540.846 609.55 542.049L610.322 541.277C608.912 539.866 607.185 539.157 605.176 539.157V540.249ZM609.576 542.074C610.946 543.273 611.63 544.801 611.63 546.703H612.722C612.722 544.498 611.912 542.666 610.295 541.252L609.576 542.074ZM611.63 546.703V575.543H612.722V546.703H611.63ZM611.63 575.543C611.63 577.245 610.955 578.791 609.55 580.197L610.322 580.969C611.903 579.388 612.722 577.574 612.722 575.543H611.63ZM609.55 580.197C608.346 581.4 606.899 581.997 605.176 581.997V583.089C607.185 583.089 608.912 582.379 610.322 580.969L609.55 580.197ZM605.176 581.997H578.016V583.089H605.176V581.997ZM578.016 581.997C570.257 581.997 564.13 584.176 559.71 588.597L560.482 589.369C564.648 585.203 570.467 583.089 578.016 583.089V581.997ZM559.71 588.597C555.471 592.835 553.39 598.872 553.39 606.623H554.482C554.482 599.066 556.507 593.344 560.482 589.369L559.71 588.597ZM553.39 606.623V678.303H554.482V606.623H553.39ZM553.39 678.303C553.39 680.205 552.706 681.733 551.336 682.932L552.055 683.754C553.672 682.339 554.482 680.507 554.482 678.303H553.39ZM551.31 682.957C550.117 684.149 548.582 684.757 546.656 684.757V685.849C548.836 685.849 550.661 685.15 552.082 683.729L551.31 682.957ZM546.656 684.757H511.936V685.849H546.656V684.757ZM669.033 683.343L669.419 682.957L669.033 683.343ZM667.073 533.263H667.619V532.717H667.073V533.263ZM612.193 531.303L611.782 531.662L611.794 531.676L611.807 531.689L612.193 531.303ZM612.193 491.263L612.579 491.649L612.579 491.649L612.193 491.263ZM772.913 531.303L773.299 531.689L773.312 531.676L773.324 531.662L772.913 531.303ZM718.033 533.263V532.717H717.487V533.263H718.033ZM674.073 684.757C672.147 684.757 670.612 684.149 669.419 682.957L668.647 683.729C670.068 685.15 671.893 685.849 674.073 685.849V684.757ZM669.419 682.957C668.227 681.764 667.619 680.229 667.619 678.303H666.527C666.527 680.483 667.226 682.308 668.647 683.729L669.419 682.957ZM667.619 678.303V533.263H666.527V678.303H667.619ZM667.073 532.717H617.233V533.809H667.073V532.717ZM617.233 532.717C615.307 532.717 613.772 532.109 612.579 530.917L611.807 531.689C613.228 533.11 615.053 533.809 617.233 533.809V532.717ZM612.604 530.943C611.379 529.543 610.779 527.988 610.779 526.263H609.687C609.687 528.27 610.394 530.076 611.782 531.662L612.604 530.943ZM610.779 526.263V496.303H609.687V526.263H610.779ZM610.779 496.303C610.779 494.377 611.387 492.841 612.579 491.649L611.807 490.877C610.386 492.298 609.687 494.122 609.687 496.303H610.779ZM612.579 491.649C613.772 490.456 615.307 489.849 617.233 489.849V488.757C615.053 488.757 613.228 489.456 611.807 490.877L612.579 491.649ZM617.233 489.849H767.873V488.757H617.233V489.849ZM767.873 489.849C769.799 489.849 771.335 490.456 772.527 491.649L773.299 490.877C771.878 489.456 770.054 488.757 767.873 488.757V489.849ZM772.527 491.649C773.719 492.841 774.327 494.377 774.327 496.303H775.419C775.419 494.122 774.72 492.298 773.299 490.877L772.527 491.649ZM774.327 496.303V526.263H775.419V496.303H774.327ZM774.327 526.263C774.327 527.988 773.728 529.543 772.502 530.943L773.324 531.662C774.712 530.076 775.419 528.27 775.419 526.263H774.327ZM772.527 530.917C771.335 532.109 769.799 532.717 767.873 532.717V533.809C770.054 533.809 771.878 533.11 773.299 531.689L772.527 530.917ZM767.873 532.717H718.033V533.809H767.873V532.717ZM717.487 533.263V678.303H718.579V533.263H717.487ZM717.487 678.303C717.487 680.229 716.879 681.764 715.687 682.957L716.459 683.729C717.88 682.308 718.579 680.483 718.579 678.303H717.487ZM715.687 682.957C714.495 684.149 712.959 684.757 711.033 684.757V685.849C713.214 685.849 715.038 685.15 716.459 683.729L715.687 682.957ZM711.033 684.757H674.073V685.849H711.033V684.757ZM784.708 683.343L784.322 683.729L784.322 683.729L784.708 683.343ZM784.708 541.943L785.094 542.329L785.107 542.316L785.119 542.302L784.708 541.943ZM826.988 541.943L826.577 542.302L826.589 542.316L826.602 542.329L826.988 541.943ZM828.948 557.903H828.402V559.361L829.36 558.261L828.948 557.903ZM846.868 544.463L846.645 543.964L846.64 543.967L846.868 544.463ZM887.748 541.663L887.362 542.049L887.375 542.062L887.389 542.074L887.748 541.663ZM837.908 588.983L838.294 589.369L838.294 589.369L837.908 588.983ZM829.508 683.343L829.149 682.932L829.135 682.944L829.122 682.957L829.508 683.343ZM789.748 684.757C787.822 684.757 786.287 684.149 785.094 682.957L784.322 683.729C785.743 685.15 787.568 685.849 789.748 685.849V684.757ZM785.094 682.957C783.902 681.764 783.294 680.229 783.294 678.303H782.202C782.202 680.483 782.901 682.308 784.322 683.729L785.094 682.957ZM783.294 678.303V546.703H782.202V678.303H783.294ZM783.294 546.703C783.294 544.979 783.891 543.532 785.094 542.329L784.322 541.557C782.912 542.967 782.202 544.693 782.202 546.703H783.294ZM785.119 542.302C786.318 540.932 787.846 540.249 789.748 540.249V539.157C787.544 539.157 785.712 539.967 784.297 541.583L785.119 542.302ZM789.748 540.249H821.948V539.157H789.748V540.249ZM821.948 540.249C823.85 540.249 825.378 540.932 826.577 542.302L827.399 541.583C825.985 539.967 824.153 539.157 821.948 539.157V540.249ZM826.602 542.329C827.805 543.532 828.402 544.979 828.402 546.703H829.494C829.494 544.693 828.784 542.967 827.374 541.557L826.602 542.329ZM828.402 546.703V557.903H829.494V546.703H828.402ZM829.36 558.261C834.35 552.532 840.26 548.1 847.096 544.959L846.64 543.967C839.663 547.173 833.627 551.7 828.536 557.544L829.36 558.261ZM847.091 544.961C854.106 541.823 861.962 540.249 870.668 540.249V539.157C861.828 539.157 853.817 540.756 846.645 543.964L847.091 544.961ZM870.668 540.249H882.988V539.157H870.668V540.249ZM882.988 540.249C884.712 540.249 886.159 540.846 887.362 542.049L888.134 541.277C886.724 539.866 884.998 539.157 882.988 539.157V540.249ZM887.389 542.074C888.759 543.273 889.442 544.801 889.442 546.703H890.534C890.534 544.498 889.724 542.666 888.108 541.252L887.389 542.074ZM889.442 546.703V575.543H890.534V546.703H889.442ZM889.442 575.543C889.442 577.245 888.768 578.791 887.362 580.197L888.134 580.969C889.715 579.388 890.534 577.574 890.534 575.543H889.442ZM887.362 580.197C886.159 581.4 884.712 581.997 882.988 581.997V583.089C884.998 583.089 886.724 582.379 888.134 580.969L887.362 580.197ZM882.988 581.997H855.828V583.089H882.988V581.997ZM855.828 581.997C848.07 581.997 841.943 584.176 837.522 588.597L838.294 589.369C842.46 585.203 848.28 583.089 855.828 583.089V581.997ZM837.522 588.597C833.284 592.835 831.202 598.872 831.202 606.623H832.294C832.294 599.066 834.319 593.344 838.294 589.369L837.522 588.597ZM831.202 606.623V678.303H832.294V606.623H831.202ZM831.202 678.303C831.202 680.205 830.519 681.733 829.149 682.932L829.868 683.754C831.484 682.339 832.294 680.507 832.294 678.303H831.202ZM829.122 682.957C827.93 684.149 826.394 684.757 824.468 684.757V685.849C826.649 685.849 828.473 685.15 829.894 683.729L829.122 682.957ZM824.468 684.757H789.748V685.849H824.468V684.757ZM923.956 682.503L923.711 682.991L923.718 682.995L923.725 682.998L923.956 682.503ZM905.196 666.823L904.751 667.14L904.751 667.14L905.196 666.823ZM914.436 613.343L914.751 613.789L914.756 613.785L914.436 613.343ZM957.556 597.383L957.474 596.843L957.471 596.843L957.556 597.383ZM992.556 592.063L992.638 592.603L993.102 592.532V592.063H992.556ZM988.356 572.743L988.784 572.404L988.784 572.404L988.356 572.743ZM960.076 570.503L959.791 570.037L959.779 570.044L960.076 570.503ZM952.516 578.903L952.965 579.214L952.983 579.186L952.999 579.157L952.516 578.903ZM909.396 580.863L908.981 581.218L908.995 581.234L909.01 581.249L909.396 580.863ZM907.996 576.383L908.538 576.443L908.542 576.413V576.383H907.996ZM911.636 564.903L911.164 564.628L911.16 564.634L911.636 564.903ZM923.396 551.743L923.049 551.321L923.049 551.321L923.396 551.743ZM943.556 541.103L943.379 540.586L943.379 540.586L943.556 541.103ZM1004.32 541.103L1004.48 540.584L1004.48 540.584L1004.32 541.103ZM1025.04 552.863L1024.66 553.256L1024.66 553.262L1025.04 552.863ZM1037.08 570.783L1036.56 570.976L1036.57 570.981L1037.08 570.783ZM1038.76 683.343L1038.4 682.932L1038.38 682.944L1038.37 682.957L1038.76 683.343ZM994.516 668.503H995.062V666.738L994.065 668.194L994.516 668.503ZM984.716 678.303L984.394 677.861L984.394 677.861L984.716 678.303ZM970.156 685.303L969.999 684.78L969.988 684.783L969.978 684.787L970.156 685.303ZM978.836 652.823L979.088 653.307L979.096 653.303L978.836 652.823ZM989.196 641.903L988.711 641.651L988.707 641.659L989.196 641.903ZM993.116 619.223H993.662V618.572L993.021 618.685L993.116 619.223ZM969.316 623.423L969.407 623.961L969.411 623.96L969.316 623.423ZM949.996 630.423L950.327 630.857L950.33 630.855L949.996 630.423ZM946.916 649.183L946.496 649.532L946.496 649.532L946.916 649.183ZM954.196 654.503L953.977 655.003L953.99 655.009L954.004 655.014L954.196 654.503ZM951.116 687.557C941.104 687.557 932.131 685.703 924.186 682.008L923.725 682.998C931.834 686.769 940.967 688.649 951.116 688.649V687.557ZM924.2 682.014C916.432 678.13 910.25 672.96 905.64 666.505L904.751 667.14C909.474 673.752 915.799 679.035 923.711 682.991L924.2 682.014ZM905.64 666.505C901.041 660.067 898.742 652.805 898.742 644.703H897.65C897.65 653.027 900.017 660.512 904.751 667.14L905.64 666.505ZM898.742 644.703C898.742 631.627 904.069 621.34 914.751 613.789L914.12 612.897C903.149 620.652 897.65 631.272 897.65 644.703H898.742ZM914.756 613.785C925.492 606.01 939.776 600.713 957.64 597.922L957.471 596.843C939.495 599.652 925.032 604.995 914.115 612.9L914.756 613.785ZM957.638 597.923L992.638 592.603L992.474 591.523L957.474 596.843L957.638 597.923ZM993.102 592.063V588.143H992.01V592.063H993.102ZM993.102 588.143C993.102 581.357 991.69 576.084 988.784 572.404L987.927 573.081C990.622 576.494 992.01 581.488 992.01 588.143H993.102ZM988.784 572.404C985.829 568.661 980.482 566.877 972.956 566.877V567.969C980.363 567.969 985.283 569.732 987.927 573.081L988.784 572.404ZM972.956 566.877C967.661 566.877 963.26 567.917 959.791 570.037L960.36 570.969C963.611 568.982 967.797 567.969 972.956 567.969V566.877ZM959.779 570.044C956.522 572.152 953.94 575.024 952.032 578.648L952.999 579.157C954.825 575.688 957.282 572.961 960.372 570.961L959.779 570.044ZM952.067 578.592C950.49 580.869 948.326 581.997 945.516 581.997V583.089C948.679 583.089 951.181 581.79 952.965 579.214L952.067 578.592ZM945.516 581.997H914.156V583.089H945.516V581.997ZM914.156 581.997C912.202 581.997 910.772 581.466 909.782 580.477L909.01 581.249C910.26 582.499 912.002 583.089 914.156 583.089V581.997ZM909.81 580.507C908.787 579.313 908.369 577.97 908.538 576.443L907.453 576.322C907.249 578.156 907.765 579.799 908.981 581.218L909.81 580.507ZM908.542 576.383C908.542 573.151 909.71 569.419 912.111 565.171L911.16 564.634C908.707 568.974 907.45 572.895 907.45 576.383H908.542ZM912.107 565.178C914.68 560.768 918.551 556.429 923.742 552.165L923.049 551.321C917.787 555.643 913.818 560.077 911.164 564.628L912.107 565.178ZM923.742 552.165C928.906 547.923 935.564 544.404 943.732 541.62L943.379 540.586C935.121 543.401 928.338 546.976 923.049 551.321L923.742 552.165ZM943.732 541.62C951.873 538.844 961.704 537.449 973.236 537.449V536.357C961.621 536.357 951.665 537.761 943.379 540.586L943.732 541.62ZM973.236 537.449C985.33 537.449 995.629 538.845 1004.15 541.622L1004.48 540.584C995.828 537.761 985.408 536.357 973.236 536.357V537.449ZM1004.15 541.622C1012.67 544.402 1019.5 548.285 1024.66 553.256L1025.41 552.47C1020.12 547.36 1013.13 543.403 1004.48 540.584L1004.15 541.622ZM1024.66 553.262C1030.02 558.245 1033.98 564.148 1036.56 570.976L1037.59 570.589C1034.94 563.604 1030.88 557.56 1025.41 552.463L1024.66 553.262ZM1036.57 570.981C1039.15 577.629 1040.45 585.028 1040.45 593.183H1041.54C1041.54 584.911 1040.23 577.376 1037.58 570.585L1036.57 570.981ZM1040.45 593.183V678.303H1041.54V593.183H1040.45ZM1040.45 678.303C1040.45 680.205 1039.77 681.733 1038.4 682.932L1039.12 683.754C1040.73 682.339 1041.54 680.507 1041.54 678.303H1040.45ZM1038.37 682.957C1037.17 684.16 1035.72 684.757 1034 684.757V685.849C1036.01 685.849 1037.73 685.139 1039.14 683.729L1038.37 682.957ZM1034 684.757H1001.52V685.849H1034V684.757ZM1001.52 684.757C999.59 684.757 998.054 684.149 996.862 682.957L996.09 683.729C997.51 685.15 999.335 685.849 1001.52 685.849V684.757ZM996.862 682.957C995.669 681.764 995.062 680.229 995.062 678.303H993.97C993.97 680.483 994.669 682.308 996.09 683.729L996.862 682.957ZM995.062 678.303V668.503H993.97V678.303H995.062ZM994.065 668.194C991.679 671.681 988.46 674.905 984.394 677.861L985.037 678.744C989.185 675.727 992.499 672.418 994.966 668.811L994.065 668.194ZM984.394 677.861C980.345 680.807 975.549 683.115 969.999 684.78L970.313 685.826C975.963 684.131 980.873 681.772 985.037 678.744L984.394 677.861ZM969.978 684.787C964.635 686.629 958.351 687.557 951.116 687.557V688.649C958.441 688.649 964.85 687.71 970.334 685.819L969.978 684.787ZM964.276 656.729C969.766 656.729 974.708 655.592 979.088 653.307L978.583 652.339C974.377 654.533 969.612 655.637 964.276 655.637V656.729ZM979.096 653.303C983.681 650.819 987.211 647.094 989.684 642.147L988.707 641.659C986.327 646.419 982.951 649.973 978.576 652.343L979.096 653.303ZM989.68 642.154C992.345 637.016 993.662 630.67 993.662 623.143H992.57C992.57 630.548 991.273 636.71 988.711 641.651L989.68 642.154ZM993.662 623.143V619.223H992.57V623.143H993.662ZM993.021 618.685L969.221 622.885L969.411 623.96L993.211 619.76L993.021 618.685ZM969.224 622.884C960.417 624.383 953.873 626.736 949.662 629.991L950.33 630.855C954.332 627.762 960.667 625.449 969.407 623.961L969.224 622.884ZM949.665 629.988C945.64 633.055 943.57 636.751 943.57 641.063H944.662C944.662 637.161 946.512 633.764 950.327 630.857L949.665 629.988ZM943.57 641.063C943.57 644.352 944.54 647.185 946.496 649.532L947.335 648.833C945.558 646.7 944.662 644.12 944.662 641.063H943.57ZM946.496 649.532C948.423 651.845 950.922 653.666 953.977 655.003L954.415 654.002C951.496 652.726 949.141 651.001 947.335 648.833L946.496 649.532ZM954.004 655.014C957.061 656.161 960.488 656.729 964.276 656.729V655.637C960.597 655.637 957.303 655.085 954.387 653.991L954.004 655.014ZM1074.55 683.343L1074.17 683.729L1074.17 683.729L1074.55 683.343ZM1074.55 541.663L1074.94 542.049L1074.94 542.049L1074.55 541.663ZM1116.83 541.663L1116.45 542.049L1116.45 542.049L1116.83 541.663ZM1118.79 557.343H1118.25V558.844L1119.21 557.694L1118.79 557.343ZM1137.83 542.783L1138.08 543.271L1138.08 543.271L1137.83 542.783ZM1194.11 544.183L1193.83 544.653L1193.84 544.656L1194.11 544.183ZM1213.71 565.743L1213.22 565.983L1213.23 565.995L1213.71 565.743ZM1218.75 683.343L1218.39 682.932L1218.38 682.944L1218.37 682.957L1218.75 683.343ZM1173.67 683.343L1173.29 683.729L1173.3 683.742L1173.31 683.754L1173.67 683.343ZM1165.27 581.703L1164.86 582.055L1164.86 582.064L1164.87 582.072L1165.27 581.703ZM1128.31 581.703L1127.92 581.324L1127.92 581.325L1128.31 581.703ZM1119.35 683.343L1118.99 682.932L1118.98 682.944L1118.97 682.957L1119.35 683.343ZM1079.59 684.757C1077.67 684.757 1076.13 684.149 1074.94 682.957L1074.17 683.729C1075.59 685.15 1077.41 685.849 1079.59 685.849V684.757ZM1074.94 682.957C1073.75 681.764 1073.14 680.229 1073.14 678.303H1072.05C1072.05 680.483 1072.74 682.308 1074.17 683.729L1074.94 682.957ZM1073.14 678.303V546.703H1072.05V678.303H1073.14ZM1073.14 546.703C1073.14 544.777 1073.75 543.241 1074.94 542.049L1074.17 541.277C1072.74 542.698 1072.05 544.522 1072.05 546.703H1073.14ZM1074.94 542.049C1076.13 540.856 1077.67 540.249 1079.59 540.249V539.157C1077.41 539.157 1075.59 539.856 1074.17 541.277L1074.94 542.049ZM1079.59 540.249H1111.79V539.157H1079.59V540.249ZM1111.79 540.249C1113.72 540.249 1115.25 540.856 1116.45 542.049L1117.22 541.277C1115.8 539.856 1113.97 539.157 1111.79 539.157V540.249ZM1116.45 542.049C1117.64 543.241 1118.25 544.777 1118.25 546.703H1119.34C1119.34 544.522 1118.64 542.698 1117.22 541.277L1116.45 542.049ZM1118.25 546.703V557.343H1119.34V546.703H1118.25ZM1119.21 557.694C1124.01 551.973 1130.29 547.163 1138.08 543.271L1137.59 542.294C1129.69 546.242 1123.28 551.139 1118.37 556.992L1119.21 557.694ZM1138.08 543.271C1145.83 539.396 1154.98 537.449 1165.55 537.449V536.357C1154.85 536.357 1145.52 538.329 1137.59 542.294L1138.08 543.271ZM1165.55 537.449C1176.29 537.449 1185.72 539.856 1193.83 544.653L1194.39 543.713C1186.08 538.803 1176.46 536.357 1165.55 536.357V537.449ZM1193.84 544.656C1202.14 549.45 1208.6 556.551 1213.22 565.983L1214.2 565.502C1209.49 555.895 1202.89 548.623 1194.39 543.71L1193.84 544.656ZM1213.23 565.995C1218.03 575.231 1220.45 586.619 1220.45 600.183H1221.54C1221.54 586.493 1219.1 574.922 1214.2 565.491L1213.23 565.995ZM1220.45 600.183V678.303H1221.54V600.183H1220.45ZM1220.45 678.303C1220.45 680.205 1219.76 681.733 1218.39 682.932L1219.11 683.754C1220.73 682.339 1221.54 680.507 1221.54 678.303H1220.45ZM1218.37 682.957C1217.16 684.16 1215.72 684.757 1213.99 684.757V685.849C1216 685.849 1217.73 685.139 1219.14 683.729L1218.37 682.957ZM1213.99 684.757H1178.71V685.849H1213.99V684.757ZM1178.71 684.757C1176.99 684.757 1175.43 684.157 1174.03 682.932L1173.31 683.754C1174.9 685.141 1176.7 685.849 1178.71 685.849V684.757ZM1174.06 682.957C1172.87 681.764 1172.26 680.229 1172.26 678.303H1171.17C1171.17 680.483 1171.86 682.308 1173.29 683.729L1174.06 682.957ZM1172.26 678.303V601.863H1171.17V678.303H1172.26ZM1172.26 601.863C1172.26 593.005 1170.09 586.134 1165.67 581.333L1164.87 582.072C1169.04 586.605 1171.17 593.173 1171.17 601.863H1172.26ZM1165.69 581.35C1161.45 576.34 1155.12 573.877 1146.79 573.877V574.969C1154.89 574.969 1160.88 577.359 1164.86 582.055L1165.69 581.35ZM1146.79 573.877C1139.01 573.877 1132.7 576.349 1127.92 581.324L1128.71 582.081C1133.25 577.35 1139.26 574.969 1146.79 574.969V573.877ZM1127.92 581.325C1123.31 586.125 1121.05 593 1121.05 601.863H1122.14C1122.14 593.179 1124.35 586.614 1128.71 582.081L1127.92 581.325ZM1121.05 601.863V678.303H1122.14V601.863H1121.05ZM1121.05 678.303C1121.05 680.205 1120.36 681.733 1118.99 682.932L1119.71 683.754C1121.33 682.339 1122.14 680.507 1122.14 678.303H1121.05ZM1118.97 682.957C1117.76 684.16 1116.32 684.757 1114.59 684.757V685.849C1116.6 685.849 1118.33 685.139 1119.74 683.729L1118.97 682.957ZM1114.59 684.757H1079.59V685.849H1114.59V684.757ZM1281.08 684.183L1280.91 684.701L1280.91 684.703L1280.92 684.705L1281.08 684.183ZM1260.36 674.103L1260.03 674.54L1260.04 674.545L1260.36 674.103ZM1248.6 662.063L1248.13 662.347L1248.14 662.356L1248.6 662.063ZM1244.4 651.143L1244.95 651.109L1244.94 651.101L1244.94 651.093L1244.4 651.143ZM1246.36 646.103L1246.72 646.514L1246.73 646.502L1246.75 646.489L1246.36 646.103ZM1284.44 644.143L1284.2 644.631L1284.2 644.631L1284.44 644.143ZM1286.12 645.263L1285.79 645.7L1285.83 645.724L1285.86 645.744L1286.12 645.263ZM1293.4 650.303L1293.05 650.72L1293.06 650.728L1293.07 650.736L1293.4 650.303ZM1301.8 655.343L1302.03 654.849L1302.03 654.849L1301.8 655.343ZM1326.44 654.503L1326.17 654.03L1326.17 654.03L1326.44 654.503ZM1329.24 637.983L1328.82 638.329L1328.83 638.338L1328.83 638.348L1329.24 637.983ZM1318.88 632.103L1318.69 632.615L1318.7 632.617L1318.88 632.103ZM1295.92 626.503L1295.8 627.035L1295.81 627.038L1295.82 627.04L1295.92 626.503ZM1270.44 617.823L1270.19 618.309L1270.2 618.314L1270.44 617.823ZM1253.64 603.543L1253.18 603.842L1253.19 603.849L1253.64 603.543ZM1255.04 560.423L1255.49 560.737L1255.49 560.737L1255.04 560.423ZM1276.32 543.623L1276.55 544.119L1276.56 544.115L1276.32 543.623ZM1338.76 540.823L1338.59 541.341L1338.59 541.343L1338.6 541.345L1338.76 540.823ZM1358.92 550.343L1358.6 550.785L1358.61 550.79L1358.92 550.343ZM1371.52 562.383L1371.07 562.69L1371.07 562.69L1371.52 562.383ZM1376 573.583L1375.46 573.613L1375.46 573.625L1375.46 573.637L1376 573.583ZM1374.32 578.623L1374.71 579.009L1374.72 578.996L1374.73 578.982L1374.32 578.623ZM1338.48 580.303L1338.24 580.791L1338.29 580.818L1338.35 580.832L1338.48 580.303ZM1336.52 579.183L1336.82 578.728L1336.79 578.71L1336.76 578.694L1336.52 579.183ZM1329.8 574.703L1329.45 575.122L1329.45 575.122L1329.8 574.703ZM1321.96 569.663L1321.72 570.151L1321.72 570.151L1321.96 569.663ZM1299 570.783L1299.34 571.209L1299.34 571.209L1299 570.783ZM1297.04 586.183L1296.6 586.504L1296.61 586.516L1296.62 586.529L1297.04 586.183ZM1306.84 591.783L1306.66 592.299L1306.67 592.301L1306.84 591.783ZM1330.08 597.383L1329.98 597.919L1329.98 597.92L1329.99 597.922L1330.08 597.383ZM1360.88 607.463L1360.6 607.929L1360.6 607.934L1360.88 607.463ZM1377.12 623.423L1376.63 623.673L1376.64 623.679L1377.12 623.423ZM1373.76 666.263L1373.33 665.926L1373.32 665.933L1373.76 666.263ZM1350.24 682.503L1350.42 683.017L1350.43 683.014L1350.24 682.503ZM1312.16 687.557C1300.06 687.557 1289.76 686.254 1281.24 683.66L1280.92 684.705C1289.57 687.339 1299.99 688.649 1312.16 688.649V687.557ZM1281.25 683.665C1272.89 680.877 1266.04 677.539 1260.68 673.66L1260.04 674.545C1265.51 678.506 1272.47 681.889 1280.91 684.701L1281.25 683.665ZM1260.69 673.666C1255.5 669.773 1251.63 665.805 1249.06 661.77L1248.14 662.356C1250.8 666.533 1254.77 670.593 1260.03 674.54L1260.69 673.666ZM1249.07 661.779C1246.47 657.516 1245.12 653.966 1244.95 651.109L1243.86 651.177C1244.05 654.293 1245.5 658.023 1248.13 662.347L1249.07 661.779ZM1244.94 651.093C1244.77 649.206 1245.36 647.7 1246.72 646.514L1246 645.692C1244.37 647.119 1243.65 648.973 1243.86 651.192L1244.94 651.093ZM1246.75 646.489C1248.17 645.07 1249.62 644.409 1251.12 644.409V643.317C1249.26 643.317 1247.54 644.149 1245.97 645.717L1246.75 646.489ZM1251.12 644.409H1283.04V643.317H1251.12V644.409ZM1283.04 644.409C1283.54 644.409 1283.92 644.493 1284.2 644.631L1284.68 643.654C1284.21 643.419 1283.66 643.317 1283.04 643.317V644.409ZM1284.2 644.631C1284.52 644.794 1285.05 645.141 1285.79 645.7L1286.45 644.826C1285.7 644.264 1285.11 643.865 1284.68 643.654L1284.2 644.631ZM1285.86 645.744C1288.25 647.03 1290.65 648.687 1293.05 650.72L1293.75 649.886C1291.3 647.812 1288.84 646.109 1286.38 644.782L1285.86 645.744ZM1293.07 650.736C1295.53 652.629 1298.36 654.329 1301.57 655.837L1302.03 654.849C1298.89 653.37 1296.12 651.709 1293.73 649.87L1293.07 650.736ZM1301.57 655.837C1304.83 657.372 1308.74 658.129 1313.28 658.129V657.037C1308.86 657.037 1305.12 656.3 1302.03 654.849L1301.57 655.837ZM1313.28 658.129C1318.58 658.129 1323.06 657.088 1326.71 654.975L1326.17 654.03C1322.72 656.024 1318.44 657.037 1313.28 657.037V658.129ZM1326.71 654.975C1330.43 652.824 1332.31 649.564 1332.31 645.263H1331.21C1331.21 649.175 1329.54 652.075 1326.17 654.03L1326.71 654.975ZM1332.31 645.263C1332.31 642.168 1331.43 639.603 1329.65 637.617L1328.83 638.348C1330.41 640.096 1331.21 642.384 1331.21 645.263H1332.31ZM1329.66 637.637C1327.88 635.46 1324.3 633.459 1319.06 631.589L1318.7 632.617C1323.91 634.479 1327.24 636.399 1328.82 638.329L1329.66 637.637ZM1319.07 631.591C1313.98 629.707 1306.29 627.834 1296.02 625.965L1295.82 627.04C1306.08 628.905 1313.7 630.765 1318.69 632.615L1319.07 631.591ZM1296.04 625.971C1286.37 623.738 1277.92 620.857 1270.68 617.332L1270.2 618.314C1277.53 621.882 1286.06 624.788 1295.8 627.035L1296.04 625.971ZM1270.69 617.337C1263.48 613.638 1257.95 608.935 1254.09 603.236L1253.19 603.849C1257.17 609.724 1262.84 614.541 1270.19 618.309L1270.69 617.337ZM1254.1 603.243C1250.24 597.374 1248.31 590.295 1248.31 581.983H1247.21C1247.21 590.47 1249.2 597.765 1253.18 603.842L1254.1 603.243ZM1248.31 581.983C1248.31 574.643 1250.69 567.564 1255.49 560.737L1254.59 560.109C1249.68 567.095 1247.21 574.389 1247.21 581.983H1248.31ZM1255.49 560.737C1260.27 553.924 1267.28 548.381 1276.55 544.119L1276.09 543.127C1266.69 547.452 1259.51 553.108 1254.59 560.109L1255.49 560.737ZM1276.56 544.115C1285.8 539.68 1297.19 537.449 1310.76 537.449V536.357C1297.08 536.357 1285.51 538.606 1276.08 543.13L1276.56 544.115ZM1310.76 537.449C1321.55 537.449 1330.82 538.751 1338.59 541.341L1338.93 540.305C1331.02 537.668 1321.63 536.357 1310.76 536.357V537.449ZM1338.6 541.345C1346.58 543.759 1353.25 546.908 1358.6 550.785L1359.24 549.9C1353.77 545.937 1346.99 542.74 1338.92 540.3L1338.6 541.345ZM1358.61 550.79C1364.17 554.685 1368.32 558.654 1371.07 562.69L1371.97 562.075C1369.12 557.898 1364.87 553.84 1359.23 549.895L1358.61 550.79ZM1371.07 562.69C1373.84 566.751 1375.28 570.389 1375.46 573.613L1376.55 573.552C1376.35 570.057 1374.8 566.227 1371.97 562.075L1371.07 562.69ZM1375.46 573.637C1375.63 575.344 1375.12 576.876 1373.91 578.263L1374.73 578.982C1376.13 577.383 1376.75 575.555 1376.54 573.528L1375.46 573.637ZM1373.93 578.237C1372.72 579.452 1371.36 580.037 1369.84 580.037V581.129C1371.68 581.129 1373.31 580.407 1374.71 579.009L1373.93 578.237ZM1369.84 580.037H1340.72V581.129H1369.84V580.037ZM1340.72 580.037C1340.02 580.037 1339.32 579.949 1338.61 579.773L1338.35 580.832C1339.14 581.03 1339.93 581.129 1340.72 581.129V580.037ZM1338.72 579.814C1337.99 579.449 1337.36 579.087 1336.82 578.728L1336.22 579.637C1336.8 580.026 1337.47 580.41 1338.24 580.791L1338.72 579.814ZM1336.76 578.694C1334.57 577.596 1332.36 576.127 1330.15 574.283L1329.45 575.122C1331.72 577.012 1333.99 578.53 1336.28 579.671L1336.76 578.694ZM1330.15 574.283C1327.87 572.386 1325.22 570.684 1322.2 569.174L1321.72 570.151C1324.67 571.628 1327.25 573.286 1329.45 575.122L1330.15 574.283ZM1322.2 569.174C1319.12 567.632 1315.3 566.877 1310.76 566.877V567.969C1315.18 567.969 1318.83 568.706 1321.72 570.151L1322.2 569.174ZM1310.76 566.877C1305.65 566.877 1301.59 568.013 1298.66 570.356L1299.34 571.209C1302.01 569.073 1305.79 567.969 1310.76 567.969V566.877ZM1298.66 570.356C1295.73 572.699 1294.25 575.748 1294.25 579.463H1295.35C1295.35 576.084 1296.67 573.347 1299.34 571.209L1298.66 570.356ZM1294.25 579.463C1294.25 582.01 1295.04 584.362 1296.6 586.504L1297.48 585.862C1296.05 583.897 1295.35 581.768 1295.35 579.463H1294.25ZM1296.62 586.529C1298.4 588.704 1301.79 590.611 1306.66 592.299L1307.02 591.267C1302.19 589.594 1299.04 587.768 1297.46 585.837L1296.62 586.529ZM1306.67 592.301C1311.74 593.992 1319.52 595.864 1329.98 597.919L1330.19 596.847C1319.74 594.795 1312.02 592.933 1307.01 591.265L1306.67 592.301ZM1329.99 597.922C1342.83 599.969 1353.02 603.312 1360.6 607.929L1361.16 606.997C1353.43 602.28 1343.09 598.903 1330.17 596.843L1329.99 597.922ZM1360.6 607.934C1368.19 612.376 1373.52 617.627 1376.63 623.673L1377.61 623.173C1374.37 616.898 1368.87 611.509 1361.16 606.991L1360.6 607.934ZM1376.64 623.679C1379.77 629.574 1381.33 635.833 1381.33 642.463H1382.43C1382.43 635.653 1380.82 629.218 1377.6 623.167L1376.64 623.679ZM1381.33 642.463C1381.33 651.303 1378.67 659.118 1373.33 665.926L1374.19 666.6C1379.68 659.595 1382.43 651.542 1382.43 642.463H1381.33ZM1373.32 665.933C1368.18 672.737 1360.43 678.097 1350.05 681.991L1350.43 683.014C1360.95 679.068 1368.89 673.602 1374.2 666.592L1373.32 665.933ZM1350.06 681.989C1339.68 685.695 1327.05 687.557 1312.16 687.557V688.649C1327.14 688.649 1339.9 686.777 1350.42 683.017L1350.06 681.989Z" fill="#E0E0E0"/>
<path opacity="0.3" d="M607.361 79.9804L607.906 80.001L607.928 79.4343H607.361V79.9804ZM576.628 79.9804V79.4343H576.137L576.085 79.9232L576.628 79.9804ZM574.719 57.8376L574.18 57.9256L574.255 58.3837H574.719V57.8376ZM606.788 57.8376V58.3837H607.369L607.333 57.8034L606.788 57.8376ZM557.158 122.139C573.376 122.139 585.829 118.013 594.356 110.649C602.889 103.279 607.424 92.7224 607.906 80.001L606.815 79.9597C606.342 92.4352 601.906 102.685 593.642 109.822C585.37 116.966 573.199 121.047 557.158 121.047V122.139ZM607.361 79.4343H576.628V80.5264H607.361V79.4343ZM576.085 79.9232C575.523 85.2632 573.61 89.2812 570.721 91.9639C567.833 94.6453 563.918 96.0413 559.258 96.0413V97.1334C564.141 97.1334 568.339 95.6661 571.464 92.7642C574.588 89.8635 576.588 85.578 577.171 80.0375L576.085 79.9232ZM559.258 96.0413C552.907 96.0413 548.169 93.8554 544.997 89.6038C541.804 85.3238 540.142 78.875 540.142 70.2452H539.05C539.05 78.9859 540.729 85.7082 544.122 90.2567C547.536 94.8336 552.628 97.1334 559.258 97.1334V96.0413ZM540.142 70.2452V68.7181H539.05V70.2452H540.142ZM540.142 68.7181C540.142 60.3842 541.896 54.1736 545.064 50.0581C548.214 45.9647 552.815 43.8764 558.685 43.8764V42.7843C552.529 42.7843 547.586 44.9909 544.198 49.392C540.828 53.7708 539.05 60.2541 539.05 68.7181H540.142ZM558.685 43.8764C563.552 43.8764 567.027 45.1375 569.475 47.4716C571.932 49.8152 573.427 53.3102 574.18 57.9256L575.258 57.7497C574.485 53.0117 572.925 49.253 570.229 46.6813C567.522 44.1001 563.744 42.7843 558.685 42.7843V43.8764ZM574.719 58.3837H606.788V57.2916H574.719V58.3837ZM607.333 57.8034C606.369 42.4822 600.191 32.0651 591.122 25.4938C582.074 18.9375 570.208 16.2513 557.921 16.2513V17.3433C570.068 17.3433 581.681 20.0019 590.481 26.3781C599.26 32.7392 605.298 42.8423 606.243 57.8719L607.333 57.8034ZM557.921 16.2513C543.106 16.2513 529.653 21.0621 519.898 30.0926C510.137 39.1286 504.118 52.3542 504.118 69.0999H505.21C505.21 52.6316 511.122 39.7058 520.64 30.894C530.165 22.0768 543.34 17.3433 557.921 17.3433V16.2513ZM504.118 69.0999V70.627H505.21V69.0999H504.118ZM504.118 70.627C504.118 87.5551 509.846 100.452 519.377 109.113C528.901 117.766 542.166 122.139 557.158 122.139V121.047C542.372 121.047 529.39 116.735 520.111 108.304C510.841 99.8808 505.21 87.2947 505.21 70.627H504.118ZM670.736 95.6596C664.295 95.6596 659.508 93.3817 656.31 89.0568C653.092 84.7039 651.43 78.2056 651.43 69.6725H650.338C650.338 78.3192 652.017 85.0874 655.432 89.7061C658.867 94.3528 664.006 96.7516 670.736 96.7516V95.6596ZM651.43 69.6725V68.1455H650.338V69.6725H651.43ZM651.43 68.1455C651.43 59.8113 653.184 53.5062 656.446 49.2959C659.69 45.1079 664.482 42.922 670.736 42.922V41.8299C664.201 41.8299 659.067 44.1298 655.582 48.6271C652.116 53.102 650.338 59.6817 650.338 68.1455H651.43ZM670.736 42.922C677.08 42.922 681.821 45.1983 684.996 49.4777C688.191 53.7839 689.851 60.1875 689.851 68.5272H690.943C690.943 60.0691 689.263 53.397 685.873 48.827C682.462 44.2303 677.373 41.8299 670.736 41.8299V42.922ZM689.851 68.5272V70.0543H690.943V68.5272H689.851ZM689.851 70.0543C689.851 78.2943 688.145 84.6996 684.924 89.0318C681.722 93.3396 676.978 95.6596 670.736 95.6596V96.7516C677.283 96.7516 682.37 94.2994 685.801 89.6833C689.214 85.0917 690.943 78.4214 690.943 70.0543H689.851ZM670.545 122.139C686.025 122.139 699.811 117.235 709.734 108.206C719.663 99.1709 725.684 86.0401 725.684 69.6725H724.592C724.592 85.7555 718.684 98.5851 708.999 107.398C699.308 116.217 685.798 121.047 670.545 121.047V122.139ZM725.684 69.6725V68.1455H724.592V69.6725H725.684ZM725.684 68.1455C725.684 52.1575 719.709 39.1706 709.829 30.1848C699.955 21.2042 686.218 16.2513 670.736 16.2513V17.3433C685.987 17.3433 699.45 22.221 709.095 30.9927C718.733 39.7593 724.592 52.4465 724.592 68.1455H725.684ZM670.736 16.2513C655.156 16.2513 641.322 21.3494 631.378 30.5214C621.428 39.6979 615.406 52.9222 615.406 69.0999H616.498C616.498 53.2088 622.406 40.2818 632.118 31.3242C641.835 22.3621 655.393 17.3433 670.736 17.3433V16.2513ZM615.406 69.0999V70.627H616.498V69.0999H615.406ZM615.406 70.627C615.406 86.901 621.429 99.7954 631.361 108.616C641.286 117.429 655.071 122.139 670.545 122.139V121.047C655.287 121.047 641.776 116.404 632.086 107.799C622.405 99.2013 616.498 86.6125 616.498 70.627H615.406ZM740.041 119.303H739.495V119.849H740.041V119.303ZM774.209 119.303V119.849H774.755V119.303H774.209ZM805.515 119.303H804.969V119.849H805.515V119.303ZM839.683 119.303V119.849H840.229V119.303H839.683ZM774.209 35.5041H773.663L774.694 35.7554L774.209 35.5041ZM774.209 19.4697H774.755V18.9237H774.209V19.4697ZM740.041 19.4697V18.9237H739.495V19.4697H740.041ZM740.041 119.849H774.209V118.757H740.041V119.849ZM774.755 119.303V63.3733H773.663V119.303H774.755ZM774.755 63.3733C774.755 57.0732 776.447 52.5007 779.305 49.5055C782.16 46.513 786.25 45.0217 791.198 45.0217V43.9296C786.029 43.9296 781.625 45.4925 778.515 48.7515C775.408 52.0078 773.663 56.8841 773.663 63.3733H774.755ZM791.198 45.0217C796.06 45.0217 799.459 46.3738 801.66 49.0019C803.879 51.6506 804.969 55.6969 804.969 61.2736H806.061C806.061 55.5881 804.955 51.2353 802.497 48.3007C800.022 45.3454 796.263 43.9296 791.198 43.9296V45.0217ZM804.969 61.2736V119.303H806.061V61.2736H804.969ZM805.515 119.849H839.683V118.757H805.515V119.849ZM840.229 119.303V54.4017H839.137V119.303H840.229ZM840.229 54.4017C840.229 41.5216 836.864 31.9708 830.993 25.6363C825.116 19.2968 816.797 16.2513 807.042 16.2513V17.3433C816.566 17.3433 824.567 20.3107 830.192 26.3787C835.821 32.4517 839.137 41.7032 839.137 54.4017H840.229ZM807.042 16.2513C790.223 16.2513 779.16 24.7706 773.725 35.2527L774.694 35.7554C779.949 25.6219 790.646 17.3433 807.042 17.3433V16.2513ZM774.755 35.5041V19.4697H773.663V35.5041H774.755ZM774.209 18.9237H740.041V20.0157H774.209V18.9237ZM739.495 19.4697V119.303H740.587V19.4697H739.495ZM917.76 118.73L917.897 119.258L918.306 119.152V118.73H917.76ZM917.76 92.7697H918.306V91.9817L917.568 92.2584L917.76 92.7697ZM897.908 42.7577V42.2117H897.362V42.7577H897.908ZM917.569 42.7577V43.3037H918.115V42.7577H917.569ZM917.569 19.4697H918.115V18.9237H917.569V19.4697ZM897.908 19.4697H897.362V20.0157H897.908V19.4697ZM897.908 -1.33681H898.454V-1.88285H897.908V-1.33681ZM863.739 -1.33681V-1.88285H863.193V-1.33681H863.739ZM863.739 19.4697V20.0157H864.285V19.4697H863.739ZM851.713 19.4697V18.9237H851.167V19.4697H851.713ZM851.713 42.7577H851.167V43.3037H851.713V42.7577ZM863.739 42.7577H864.285V42.2117H863.739V42.7577ZM898.862 122.139C906.956 122.139 913.505 120.404 917.897 119.258L917.622 118.202C913.233 119.347 906.803 121.047 898.862 121.047V122.139ZM918.306 118.73V92.7697H917.214V118.73H918.306ZM917.568 92.2584C914.575 93.3808 911.776 93.9416 908.024 93.9416V95.0337C911.908 95.0337 914.836 94.4491 917.951 93.2809L917.568 92.2584ZM908.024 93.9416C904.864 93.9416 902.498 93.1517 900.918 91.5723C899.339 89.9928 898.454 87.5316 898.454 83.9889H897.362C897.362 87.6999 898.29 90.488 900.146 92.3445C902.003 94.201 904.695 95.0337 908.024 95.0337V93.9416ZM898.454 83.9889V42.7577H897.362V83.9889H898.454ZM897.908 43.3037H917.569V42.2117H897.908V43.3037ZM918.115 42.7577V19.4697H917.023V42.7577H918.115ZM917.569 18.9237H897.908V20.0157H917.569V18.9237ZM898.454 19.4697V-1.33681H897.362V19.4697H898.454ZM897.908 -1.88285H863.739V-0.790768H897.908V-1.88285ZM863.193 -1.33681V19.4697H864.285V-1.33681H863.193ZM863.739 18.9237H851.713V20.0157H863.739V18.9237ZM851.167 19.4697V42.7577H852.259V19.4697H851.167ZM851.713 43.3037H863.739V42.2117H851.713V43.3037ZM863.193 42.7577V87.234H864.285V42.7577H863.193ZM863.193 87.234C863.193 99.0678 866.37 107.824 872.478 113.615C878.581 119.4 887.52 122.139 898.862 122.139V121.047C887.679 121.047 879.057 118.346 873.23 112.822C867.408 107.303 864.285 98.8791 864.285 87.234H863.193ZM990.997 107.659H991.543V105.835L990.541 107.359L990.997 107.659ZM990.997 119.303H990.451V119.849H990.997V119.303ZM1024.21 119.303V119.849H1024.76V119.303H1024.21ZM931.441 52.6837L930.896 52.6491L930.859 53.2298H931.441V52.6837ZM963.509 52.6837V53.2298H963.993L964.052 52.7495L963.509 52.6837ZM990.233 58.983V59.529H990.779V58.983H990.233ZM990.233 78.2624H990.779V77.7163H990.233V78.2624ZM961.41 122.139C977.627 122.139 986.579 115.367 991.453 107.959L990.541 107.359C985.87 114.458 977.262 121.047 961.41 121.047V122.139ZM990.451 107.659V119.303H991.543V107.659H990.451ZM990.997 119.849H1024.21V118.757H990.997V119.849ZM1024.76 119.303V54.5926H1023.66V119.303H1024.76ZM1024.76 54.5926C1024.76 41.1954 1020.32 31.5719 1012.33 25.3152C1004.37 19.0773 992.967 16.2513 979.162 16.2513V17.3433C992.845 17.3433 1003.97 20.1484 1011.66 26.1749C1019.33 32.1826 1023.66 41.4567 1023.66 54.5926H1024.76ZM979.162 16.2513C965.444 16.2513 953.77 19.224 945.32 25.2773C936.851 31.3441 931.669 40.4707 930.896 52.6491L931.986 52.7183C932.74 40.8453 937.77 32.0286 945.956 26.1651C954.16 20.288 965.584 17.3433 979.162 17.3433V16.2513ZM931.441 53.2298H963.509V52.1377H931.441V53.2298ZM964.052 52.7495C964.425 49.6705 965.444 46.842 967.455 44.7859C969.455 42.7412 972.499 41.3949 977.062 41.3949V40.3028C972.272 40.3028 968.922 41.7244 966.674 44.0223C964.438 46.3088 963.358 49.3978 962.967 52.618L964.052 52.7495ZM977.062 41.3949C982.394 41.3949 985.484 42.932 987.28 45.5041C989.11 48.1243 989.687 51.9353 989.687 56.6923H990.779C990.779 51.9051 990.212 47.7944 988.176 44.8789C986.106 41.9153 982.611 40.3028 977.062 40.3028V41.3949ZM989.687 56.6923V58.983H990.779V56.6923H989.687ZM990.233 58.4369H980.689V59.529H990.233V58.4369ZM980.689 58.4369C964.051 58.4369 950.669 60.7284 941.429 66.0254C936.8 68.679 933.205 72.0908 930.77 76.3478C928.335 80.6044 927.077 85.6761 927.077 91.6244H928.169C928.169 85.8332 929.393 80.955 931.718 76.8901C934.043 72.8258 937.486 69.5446 941.972 66.9728C950.963 61.8188 964.113 59.529 980.689 59.529V58.4369ZM927.077 91.6244C927.077 102.371 931.103 110.028 937.452 114.985C943.78 119.926 952.359 122.139 961.41 122.139V121.047C952.518 121.047 944.203 118.87 938.124 114.124C932.065 109.393 928.169 102.066 928.169 91.6244H927.077ZM973.245 97.9502C969.309 97.9502 966.493 97.0589 964.669 95.5467C962.862 94.0476 961.956 91.8772 961.956 89.1428H960.864C960.864 92.1351 961.867 94.6414 963.972 96.3873C966.062 98.1202 969.163 99.0423 973.245 99.0423V97.9502ZM961.956 89.1428C961.956 87.1576 962.325 85.5497 963.055 84.247C963.783 82.9485 964.891 81.9144 966.435 81.1086C969.553 79.4808 974.398 78.8084 981.262 78.8084V77.7163C974.382 77.7163 969.301 78.3801 965.929 80.1405C964.228 81.0288 962.95 82.2019 962.103 83.713C961.258 85.2199 960.864 87.024 960.864 89.1428H961.956ZM981.262 78.8084H990.233V77.7163H981.262V78.8084ZM989.687 78.2624V84.3707H990.779V78.2624H989.687ZM989.687 84.3707C989.687 88.4975 987.951 91.8744 985.046 94.2306C982.131 96.5944 978.013 97.9502 973.245 97.9502V99.0423C978.212 99.0423 982.588 97.6302 985.734 95.0788C988.889 92.5196 990.779 88.8337 990.779 84.3707H989.687ZM1141.06 79.9804L1141.6 80.001L1141.62 79.4343H1141.06V79.9804ZM1110.32 79.9804V79.4343H1109.83L1109.78 79.9232L1110.32 79.9804ZM1108.42 57.8376L1107.88 57.9256L1107.95 58.3837H1108.42V57.8376ZM1140.48 57.8376V58.3837H1141.07L1141.03 57.8034L1140.48 57.8376ZM1090.85 122.139C1107.07 122.139 1119.53 118.013 1128.05 110.649C1136.59 103.279 1141.12 92.7224 1141.6 80.001L1140.51 79.9597C1140.04 92.4352 1135.6 102.685 1127.34 109.822C1119.07 116.966 1106.9 121.047 1090.85 121.047V122.139ZM1141.06 79.4343H1110.32V80.5264H1141.06V79.4343ZM1109.78 79.9232C1109.22 85.2632 1107.31 89.2812 1104.42 91.9639C1101.53 94.6453 1097.61 96.0413 1092.95 96.0413V97.1334C1097.84 97.1334 1102.03 95.6661 1105.16 92.7642C1108.28 89.8635 1110.28 85.578 1110.87 80.0375L1109.78 79.9232ZM1092.95 96.0413C1086.6 96.0413 1081.86 93.8554 1078.69 89.6038C1075.5 85.3238 1073.84 78.875 1073.84 70.2452H1072.75C1072.75 78.9859 1074.42 85.7082 1077.82 90.2567C1081.23 94.8336 1086.32 97.1334 1092.95 97.1334V96.0413ZM1073.84 70.2452V68.7181H1072.75V70.2452H1073.84ZM1073.84 68.7181C1073.84 60.3842 1075.59 54.1736 1078.76 50.0581C1081.91 45.9647 1086.51 43.8764 1092.38 43.8764V42.7843C1086.22 42.7843 1081.28 44.9909 1077.89 49.392C1074.52 53.7708 1072.75 60.2541 1072.75 68.7181H1073.84ZM1092.38 43.8764C1097.25 43.8764 1100.72 45.1375 1103.17 47.4716C1105.63 49.8152 1107.12 53.3102 1107.88 57.9256L1108.95 57.7497C1108.18 53.0117 1106.62 49.253 1103.92 46.6813C1101.22 44.1001 1097.44 42.7843 1092.38 42.7843V43.8764ZM1108.42 58.3837H1140.48V57.2916H1108.42V58.3837ZM1141.03 57.8034C1140.07 42.4822 1133.89 32.0651 1124.82 25.4938C1115.77 18.9375 1103.9 16.2513 1091.62 16.2513V17.3433C1103.76 17.3433 1115.38 20.0019 1124.18 26.3781C1132.96 32.7392 1138.99 42.8423 1139.94 57.8719L1141.03 57.8034ZM1091.62 16.2513C1076.8 16.2513 1063.35 21.0621 1053.59 30.0926C1043.83 39.1286 1037.81 52.3542 1037.81 69.0999H1038.91C1038.91 52.6316 1044.82 39.7058 1054.34 30.894C1063.86 22.0768 1077.04 17.3433 1091.62 17.3433V16.2513ZM1037.81 69.0999V70.627H1038.91V69.0999H1037.81ZM1037.81 70.627C1037.81 87.5551 1043.54 100.452 1053.07 109.113C1062.6 117.766 1075.86 122.139 1090.85 122.139V121.047C1076.07 121.047 1063.09 116.735 1053.81 108.304C1044.54 99.8808 1038.91 87.2947 1038.91 70.627H1037.81ZM1213.59 118.73L1213.73 119.258L1214.14 119.152V118.73H1213.59ZM1213.59 92.7697H1214.14V91.9817L1213.4 92.2584L1213.59 92.7697ZM1193.74 42.7577V42.2117H1193.2V42.7577H1193.74ZM1213.4 42.7577V43.3037H1213.95V42.7577H1213.4ZM1213.4 19.4697H1213.95V18.9237H1213.4V19.4697ZM1193.74 19.4697H1193.2V20.0157H1193.74V19.4697ZM1193.74 -1.33681H1194.29V-1.88285H1193.74V-1.33681ZM1159.57 -1.33681V-1.88285H1159.03V-1.33681H1159.57ZM1159.57 19.4697V20.0157H1160.12V19.4697H1159.57ZM1147.55 19.4697V18.9237H1147V19.4697H1147.55ZM1147.55 42.7577H1147V43.3037H1147.55V42.7577ZM1159.57 42.7577H1160.12V42.2117H1159.57V42.7577ZM1194.7 122.139C1202.79 122.139 1209.34 120.404 1213.73 119.258L1213.46 118.202C1209.07 119.347 1202.64 121.047 1194.7 121.047V122.139ZM1214.14 118.73V92.7697H1213.05V118.73H1214.14ZM1213.4 92.2584C1210.41 93.3808 1207.61 93.9416 1203.86 93.9416V95.0337C1207.74 95.0337 1210.67 94.4491 1213.79 93.2809L1213.4 92.2584ZM1203.86 93.9416C1200.7 93.9416 1198.33 93.1517 1196.75 91.5723C1195.17 89.9928 1194.29 87.5316 1194.29 83.9889H1193.2C1193.2 87.6999 1194.12 90.488 1195.98 92.3445C1197.84 94.201 1200.53 95.0337 1203.86 95.0337V93.9416ZM1194.29 83.9889V42.7577H1193.2V83.9889H1194.29ZM1193.74 43.3037H1213.4V42.2117H1193.74V43.3037ZM1213.95 42.7577V19.4697H1212.86V42.7577H1213.95ZM1213.4 18.9237H1193.74V20.0157H1213.4V18.9237ZM1194.29 19.4697V-1.33681H1193.2V19.4697H1194.29ZM1193.74 -1.88285H1159.57V-0.790768H1193.74V-1.88285ZM1159.03 -1.33681V19.4697H1160.12V-1.33681H1159.03ZM1159.57 18.9237H1147.55V20.0157H1159.57V18.9237ZM1147 19.4697V42.7577H1148.09V19.4697H1147ZM1147.55 43.3037H1159.57V42.2117H1147.55V43.3037ZM1159.03 42.7577V87.234H1160.12V42.7577H1159.03ZM1159.03 87.234C1159.03 99.0678 1162.2 107.824 1168.31 113.615C1174.42 119.4 1183.36 122.139 1194.7 122.139V121.047C1183.51 121.047 1174.89 118.346 1169.06 112.822C1163.24 107.303 1160.12 98.8791 1160.12 87.234H1159.03ZM1390.34 -17.1803H1390.89V-17.7263H1390.34V-17.1803ZM1350.83 -17.1803V-17.7263H1350.28V-17.1803H1350.83ZM1308.07 -17.1803H1308.62V-17.7263H1308.07V-17.1803ZM1268.94 -17.1803V-17.7263H1268.39V-17.1803H1268.94ZM1329.45 122.139C1348.33 122.139 1363.71 117.491 1374.37 107.776C1385.03 98.0534 1390.89 83.3335 1390.89 63.3733H1389.8C1389.8 83.1173 1384.01 97.5075 1373.63 106.969C1363.24 116.438 1348.17 121.047 1329.45 121.047V122.139ZM1390.89 63.3733V-17.1803H1389.8V63.3733H1390.89ZM1390.34 -17.7263H1350.83V-16.6343H1390.34V-17.7263ZM1350.28 -17.1803V61.6554H1351.38V-17.1803H1350.28ZM1350.28 61.6554C1350.28 71.8524 1348.99 79.004 1345.78 83.6047C1342.6 88.1521 1337.46 90.3148 1329.45 90.3148V91.4069C1337.66 91.4069 1343.21 89.1791 1346.67 84.23C1350.09 79.3342 1351.38 71.8831 1351.38 61.6554H1350.28ZM1329.45 90.3148C1321.25 90.3148 1316.11 88.0128 1312.98 83.4646C1309.81 78.8629 1308.62 71.8525 1308.62 62.228H1307.52C1307.52 71.8829 1308.71 79.189 1312.08 84.0838C1315.49 89.0321 1321.04 91.4069 1329.45 91.4069V90.3148ZM1308.62 62.228V-17.1803H1307.52V62.228H1308.62ZM1308.07 -17.7263H1268.94V-16.6343H1308.07V-17.7263ZM1268.39 -17.1803V63.946H1269.49V-17.1803H1268.39ZM1268.39 63.946C1268.39 83.1391 1273.91 97.7139 1284.36 107.485C1294.8 117.25 1310.09 122.139 1329.45 122.139V121.047C1310.26 121.047 1295.28 116.201 1285.11 106.687C1274.94 97.1788 1269.49 82.9299 1269.49 63.946H1268.39ZM1455.94 55.1653L1455.88 55.7071L1455.88 55.7071L1455.94 55.1653ZM1463.2 49.0569L1462.66 49.164L1462.75 49.603H1463.2V49.0569ZM1494.12 49.0569V49.603H1494.72L1494.67 49.0047L1494.12 49.0569ZM1445.25 81.6983L1445.33 81.1574L1445.32 81.1567L1445.25 81.6983ZM1437.43 87.6158L1437.97 87.5306L1437.9 87.0697H1437.43V87.6158ZM1405.93 87.6158V87.0697H1405.37L1405.39 87.6346L1405.93 87.6158ZM1451.75 122.139C1465.64 122.139 1477.08 119.458 1485.06 113.734C1493.07 107.987 1497.53 99.2224 1497.53 87.234H1496.44C1496.44 98.9154 1492.12 107.33 1484.43 112.846C1476.71 118.384 1465.53 121.047 1451.75 121.047V122.139ZM1497.53 87.234C1497.53 76.4113 1494.14 69.0687 1487.16 64.0284C1480.24 59.0262 1469.86 56.3427 1456.01 54.6234L1455.88 55.7071C1469.71 57.4238 1479.84 60.0851 1486.52 64.9135C1493.15 69.7037 1496.44 76.6776 1496.44 87.234H1497.53ZM1456.01 54.6234C1449.9 53.8595 1445.78 53.0074 1443.2 51.7845C1441.92 51.1777 1441.05 50.496 1440.5 49.7221C1439.95 48.9556 1439.69 48.057 1439.69 46.9572H1438.6C1438.6 48.2435 1438.91 49.373 1439.61 50.3543C1440.3 51.3282 1441.34 52.1139 1442.73 52.7717C1445.49 54.078 1449.77 54.9439 1455.88 55.7071L1456.01 54.6234ZM1439.69 46.9572C1439.69 44.8362 1440.57 43.0448 1442.31 41.7662C1444.07 40.474 1446.76 39.6769 1450.41 39.6769V38.5848C1446.62 38.5848 1443.67 39.4103 1441.66 40.8859C1439.63 42.3752 1438.6 44.4969 1438.6 46.9572H1439.69ZM1450.41 39.6769C1454.25 39.6769 1456.98 40.4745 1458.9 42.0144C1460.81 43.5522 1462.01 45.8961 1462.66 49.164L1463.73 48.9498C1463.05 45.5368 1461.77 42.9176 1459.58 41.1626C1457.39 39.4098 1454.39 38.5848 1450.41 38.5848V39.6769ZM1463.2 49.603H1494.12V48.5109H1463.2V49.603ZM1494.67 49.0047C1493.51 36.9357 1488.57 28.7108 1480.75 23.5244C1472.96 18.3568 1462.39 16.2513 1450.03 16.2513V17.3433C1462.29 17.3433 1472.62 19.4373 1480.15 24.4343C1487.65 29.4126 1492.45 37.3175 1493.58 49.1091L1494.67 49.0047ZM1450.03 16.2513C1438.4 16.2513 1427.59 18.9395 1419.67 24.462C1411.73 29.9993 1406.72 38.371 1406.72 49.6296H1407.81C1407.81 38.7455 1412.64 30.701 1420.3 25.3578C1427.98 19.9999 1438.55 17.3433 1450.03 17.3433V16.2513ZM1406.72 49.6296C1406.72 60.1395 1409.57 67.4799 1415.9 72.6022C1422.18 77.6903 1431.81 80.5196 1445.19 82.2399L1445.32 81.1567C1431.98 79.4411 1422.62 76.6393 1416.58 71.7536C1410.6 66.9021 1407.81 59.9261 1407.81 49.6296H1406.72ZM1445.18 82.2392C1452.05 83.1936 1456.6 84.2354 1459.43 85.602C1460.83 86.2814 1461.78 87.0243 1462.37 87.8433C1462.95 88.6533 1463.22 89.5753 1463.22 90.6699H1464.32C1464.32 89.3785 1463.99 88.2246 1463.25 87.2033C1462.52 86.191 1461.41 85.3472 1459.9 84.6188C1456.91 83.1699 1452.2 82.1119 1445.33 81.1575L1445.18 82.2392ZM1463.22 90.6699C1463.22 92.9928 1462.34 94.8715 1460.49 96.1908C1458.62 97.5296 1455.7 98.332 1451.55 98.332V99.424C1455.81 99.424 1459 98.6038 1461.13 97.0794C1463.29 95.5354 1464.32 93.3101 1464.32 90.6699H1463.22ZM1451.55 98.332C1446.75 98.332 1443.66 97.3418 1441.63 95.5569C1439.6 93.7711 1438.53 91.1057 1437.97 87.5306L1436.89 87.7009C1437.47 91.3795 1438.6 94.3452 1440.91 96.3771C1443.22 98.4099 1446.62 99.424 1451.55 99.424V98.332ZM1437.43 87.0697H1405.93V88.1618H1437.43V87.0697ZM1405.39 87.6346C1405.77 98.8541 1410.18 107.512 1418.14 113.348C1426.07 119.169 1437.46 122.139 1451.75 122.139V121.047C1437.59 121.047 1426.46 118.101 1418.78 112.468C1411.13 106.851 1406.85 98.5202 1406.48 87.5969L1405.39 87.6346Z" fill="#E0E0E0"/>
</g>
<defs>
<clipPath id="clip0_1_5">
<rect width="1265.22" height="651.369" fill="white" transform="translate(0.892212 0.302734)"/>
</clipPath>
</defs>
</svg>
